<?xml version="1.0" encoding="utf-8"?>
<!-- Generator: Adobe Illustrator 21.1.0, SVG Export Plug-In . SVG Version: 6.00 Build 0)  -->
<svg version="1.1" id="Layer_1" xmlns="http://www.w3.org/2000/svg" xmlns:xlink="http://www.w3.org/1999/xlink" x="0px" y="0px"
	 viewBox="0 0 400 400" style="enable-background:new 0 0 400 400;" xml:space="preserve">
<style type="text/css">
	.st0{fill:#C6C6C6;}
	.st1{fill:#707070;}
</style>
<g>
	<rect x="266.7" y="0" class="st0" width="133.3" height="400"/>
	<polygon points="266.7,89.7 299.4,111.5 266.7,133.3 	"/>
	<rect x="0" y="0" class="st1" width="133.3" height="400"/>
	<polygon class="st1" points="266.7,0 266.7,89.7 400,178.5 400,44.4 332.2,0 	"/>
	<polygon points="133.3,89.7 100.6,111.5 133.3,133.3 	"/>
	<polygon points="270.6,4 270.6,0 266.7,0 266.7,400 270.6,400 270.6,396 	"/>
	<polygon class="st0" points="133.3,0 67.8,0 0,45.2 0,178.5 133.3,89.7 	"/>
	<polyline class="st0" points="200,177.8 400,44.4 400,177.8 200,311.1 	"/>
	<polygon points="133.3,0 129.4,0 129.4,4 129.4,396 129.4,400 133.3,400 	"/>
	<polyline class="st1" points="200,177.8 0,44.4 0,177.8 200,311.1 	"/>
	<polygon points="266.7,266.7 400,177.8 400,222.2 266.7,311.1 	"/>
	<polygon points="133.3,266.7 0,177.8 0,222.2 133.3,311.1 	"/>
	<rect x="270.6" width="125.4" height="4"/>
	<polygon points="400,0 396,0 396,4 396,396 396,400 400,400 	"/>
	<rect x="270.6" y="396" width="125.4" height="4"/>
	<polygon points="4,4 4,0 0,0 0,400 4,400 4,396 	"/>
	<rect x="4" width="125.4" height="4"/>
	<rect x="4" y="396" width="125.4" height="4"/>
</g>
</svg>
